/* XPM */
static char *result[] = {
/* columns rows colors chars-per-pixel */
"48 48 7 1 ",
"  c #A3432F",
". c #B8432F",
"X c #BE4A2F",
"o c #CB542C",
"O c #A9A49A",
"+ c #B1ADA5",
"@ c #BAB7AF",
/* pixels */
"Xoo+.XX..Xo+.XXXXoo+.XX..Xo+.XXXXoo+.XX..Xo+.XXX",
" XX+ XXXXoX+XooX XX+ XXXXoX+XooX XX+ XXXXoX+XooX",
".X +ooX..  +  X .X +ooX..  +  X .X +ooX..  +  X ",
"O+OOO+@@@+OOOO++O+OOO+@@@+OOOO++O+OOO+@@@+OOOO++",
"O.XX....OX.XoXoXO.XX....OX.XoXoXO.XX....OX.XoXoX",
"+ X...XXOX ...XX+ X...XXOX ...XX+ X...XXOX ...XX",
"@ ..oXX OX  XXoo@ ..oXX OX  XXoo@ ..oXX OX  XXoo",
"@++++++++@@OO+++@++++++++@@OO+++@++++++++@@OO+++",
"oXXOXoooooX+.X..oXXOXoooooX+.X..oXXOXoooooX+.X..",
"..X+ X...X +.oX...X+ X...X +.oX...X+ X...X +.oX.",
"X  +o.XXX  O..ooX  +o.XXX  O..ooX  +o.XXX  O..oo",
"+OOO+OO+++OOO++++OOO+OO+++OOO++++OOO+OO+++OOO+++",
"@oo....X+.XoXXXo@oo....X+.XoXXXo@oo....X+.XoXXXo",
"+.X.XXXo+....ooX+.X.XXXo+....ooX+.X.XXXo+....ooX",
"+ ....  +     XX+ ....  +     XX+ ....  +     XX",
"O++++@@@++++OO++O++++@@@++++OO++O++++@@@++++OO++",
"Xoo+.XX..Xo+.XXXXoo+.XX..Xo+.XXXXoo+.XX..Xo+.XXX",
" XX+ XXXXoX+XooX XX+ XXXXoX+XooX XX+ XXXXoX+XooX",
".X +ooX..  +  X .X +ooX..  +  X .X +ooX..  +  X ",
"O+OOO+@@@+OOOO++O+OOO+@@@+OOOO++O+OOO+@@@+OOOO++",
"O.XX....OX.XoXoXO.XX....OX.XoXoXO.XX....OX.XoXoX",
"+ X...XXOX ...XX+ X...XXOX ...XX+ X...XXOX ...XX",
"@ ..oXX OX  XXoo@ ..oXX OX  XXoo@ ..oXX OX  XXoo",
"@++++++++@@OO+++@++++++++@@OO+++@++++++++@@OO+++",
"oXXOXoooooX+.X..oXXOXoooooX+.X..oXXOXoooooX+.X..",
"..X+ X...X +.oX...X+ X...X +.oX...X+ X...X +.oX.",
"X  +o.XXX  O..ooX  +o.XXX  O..ooX  +o.XXX  O..oo",
"+OOO+OO+++OOO++++OOO+OO+++OOO++++OOO+OO+++OOO+++",
"@oo....X+.XoXXXo@oo....X+.XoXXXo@oo....X+.XoXXXo",
"+.X.XXXo+....ooX+.X.XXXo+....ooX+.X.XXXo+....ooX",
"+ ....  +     XX+ ....  +     XX+ ....  +     XX",
"O++++@@@++++OO++O++++@@@++++OO++O++++@@@++++OO++",
"Xoo+.XX..Xo+.XXXXoo+.XX..Xo+.XXXXoo+.XX..Xo+.XXX",
" XX+ XXXXoX+XooX XX+ XXXXoX+XooX XX+ XXXXoX+XooX",
".X +ooX..  +  X .X +ooX..  +  X .X +ooX..  +  X ",
"O+OOO+@@@+OOOO++O+OOO+@@@+OOOO++O+OOO+@@@+OOOO++",
"O.XX....OX.XoXoXO.XX....OX.XoXoXO.XX....OX.XoXoX",
"+ X...XXOX ...XX+ X...XXOX ...XX+ X...XXOX ...XX",
"@ ..oXX OX  XXoo@ ..oXX OX  XXoo@ ..oXX OX  XXoo",
"@++++++++@@OO+++@++++++++@@OO+++@++++++++@@OO+++",
"oXXOXoooooX+.X..oXXOXoooooX+.X..oXXOXoooooX+.X..",
"..X+ X...X +.oX...X+ X...X +.oX...X+ X...X +.oX.",
"X  +o.XXX  O..ooX  +o.XXX  O..ooX  +o.XXX  O..oo",
"+OOO+OO+++OOO++++OOO+OO+++OOO++++OOO+OO+++OOO+++",
"@oo....X+.XoXXXo@oo....X+.XoXXXo@oo....X+.XoXXXo",
"+.X.XXXo+....ooX+.X.XXXo+....ooX+.X.XXXo+....ooX",
"+ ....  +     XX+ ....  +     XX+ ....  +     XX",
"O++++@@@++++OO++O++++@@@++++OO++O++++@@@++++OO++"
};
