/* XPM */
static char *result[] = {
/* columns rows colors chars-per-pixel */
"48 48 15 1 ",
"  c #2B1D2B",
". c #2E1F2C",
"X c #4B2C33",
"o c #4D2D33",
"O c #714539",
"+ c #734639",
"@ c #75483A",
"# c #265C42",
"$ c #347646",
"% c #906748",
"& c #926848",
"* c #966C4A",
"= c #51804E",
"- c #5C9651",
"; c #6BB053",
/* pixels */
";;;;;;;;;;;;;;;;;;;;;;;;;;;;;;;;;;;;;;;;;;;;;;;;",
"$;;$$-;$$;;---;-$;;$$-;$$;;---;-$;;$$-;$$;;---;-",
"#=$#$--$#--#$$--#=$#$--$#--#$$--#=$#$--$#--#$$--",
".$$..$$##-$.$$$$.$$..$$##-$.$$$$.$$..$$##-$.$$$$",
".$#.o#$#.##.#=...$#.o#$#.##.#=...$#.o#$#.##.#=..",
".#.oo##..##o##oo.#.oo##..##o##oo.#.oo##..##o##oo",
"...o**#.o#o.#oo....o**#.o#o.#oo....o**#.o#o.#oo.",
"*o.*@@*oo***...**o.*@@*oo***...**o.*@@*oo***...*",
"@*.@@@@.*@@@*.*@@*.@@@@.*@@@*.*@@*.@@@@.*@@@*.*@",
"@@.o@@@o@@@@@o@@@@.o@@@o@@@@@o@@@@.o@@@o@@@@@o@@",
"o**.ooo.o@@@o..oo**.ooo.o@@@o..oo**.ooo.o@@@o..o",
"*@@*..**o.oo.**.*@@*..**o.oo.**.*@@*..**o.oo.**.",
"o@@oo*@@*...*@@*o@@oo*@@*...*@@*o@@oo*@@*...*@@*",
"ooo.o@@@@.**o@@@ooo.o@@@@.**o@@@ooo.o@@@@.**o@@@",
"o**o.oo@o*@@*o@@o**o.oo@o*@@*o@@o**o.oo@o*@@*o@@",
"*@@*.**o.@@@@.oo*@@*.**o.@@@@.oo*@@*.**o.@@@@.oo",
"@@@@.@@*.o@@o..o@@@@.@@*.o@@o..o@@@@.@@*.o@@o..o",
"o@@o.o@@..oo.%*.o@@o.o@@..oo.%*.o@@o.o@@..oo.**.",
".oo...oo....&@@*.oo...oo....&@@*.oo...oo....*@@*",
"..o**o..**o.@O@O..o**o..**o.@O@O..o**o..**o.@@@@",
".o*@@*.*@@%oO@@@.o*@@*.*@@%oO@@@.o*@@*.*@@*o@@@@",
".o@@oo.@@@@ooO@X.o@@oo.@@@@ooO@X.o@@oo.@@@@oo@@o",
"..oo**o@@oX..oo...oo**o@@oX..oo...oo**o@@oo..oo.",
"*o.*@@*oo***...%*o.*@@*oo***...%*o.*@@*oo***...*",
"@*.@@@@.*@O@%.*@@*.@@@@.*@O@%.*@@*.@@@@.*@@@*.*@",
"@@.o@@@o@@@@@X@O@@.o@@@o@@@@@X@O@@.o@@@o@@@@@o@@",
"o**.ooo.o@O@X..oo**.ooo.o@O@X..oo**.ooo.o@@@o..o",
"*@@*..**o.oo.&*.*@@*..**o.oo.&*.*@@*..**o.oo.**.",
"o@@oo*@@*...&@@*o@@oo*@@*...&@@*o@@oo*@@*...*@@*",
"ooo.o@@@@.**oO@Oooo.o@@@@.**oO@Oooo.o@@@@.**o@@@",
"o**o.oo@o*+@%o@@o**o.oo@o*+@%o@@o**o.oo@o*@@*o@@",
"*@@*.**o.@@@@.oX*@@*.**o.@@@@.oX*@@*.**o.@@@@.oo",
"@@@@.@@*.oO@X..o@@@@.@@*.oO@X..o@@@@.@@*.o@@o..o",
"o@@o.o@@..oo.%*.o@@o.o@@..oo.%*.o@@o.o@@..oo.**.",
".oo...oo....%@@*.oo...oo....%@@*.oo...oo....*@@*",
"..o**o..**o.@O@@..o**o..**o.@O@@..o**o..**o.@@@@",
".o*@@*.*@@%oO@@@.o*@@*.*@@%oO@@@.o*@@*.*@@*o@@@@",
".o@@oo.@@@@ooO@o.o@@oo.@@@@ooO@o.o@@oo.@@@@oo@@o",
"..oo**o@@oX..oo...oo**o@@oX..oo...oo**o@@oo..oo.",
"*o.*@@*oo***...**o.*@@*oo***...**o.*@@*oo***...*",
"@*.@@@@.*@O@%.*@@*.@@@@.*@O@%.*@@*.@@@@.*@@@*.*@",
"@@o@@@@o@@@@@.@@@@o@@@@o@@@@@.@@@@o@@@@o@@@@@.@@",
"@o.o@@o.o@O@X.oo@o.o@@o.o@O@X.oo@o.o@@o.o@@@o.oo",
"o...oo@@.ooo...oo...oo@@.ooo...oo...oo@@.ooo...o",
".oo.. @@o...Xo...oo.. @@o...Xo...oo.. @@o...oo..",
".oo....oo...oo...oo....oo...oo...oo....oo...oo..",
".....o....o....o.....o....o....o.....o....o....o",
"................................................"
};
