/* XPM */
static char *result[] = {
/* columns rows colors chars-per-pixel */
"48 48 20 1 ",
"  c #4D5A35",
". c #536138",
"X c #677B3F",
"o c #5B5959",
"O c gray37",
"+ c #6A7F43",
"@ c #637049",
"# c #64665F",
"$ c #606060",
"% c #676666",
"& c #686868",
"* c gray45",
"= c #797979",
"- c gray50",
"; c #79895B",
": c #838383",
"> c #888888",
", c gray58",
"< c #9B9B9B",
"1 c #A4A4A4",
/* pixels */
">::>> >:,::<$>,>>::>> >:,::<$>,>>::>> >:,::<$>,>",
"*=X=,$*=*@X: ==**=X=,$*=*@X: ==**=X=,$*=*@X: ==*",
"*X@=> **=X=> =***X@=> **=X=> =***X@=> **=X=> =**",
"%%$$%o. O&&%o #%%%$$%o. O&&%o #%%%$$%o. O&&%o #%",
":>$>+;>:<$>::>>::>$>+;>:<$>::>>::>$>+;>:<$>::>>:",
"=:$+@===:$*=X*===:$+@===:$*=X*===:$+@===:$*=X*==",
"=>o*X**=>o=*=@X==>o*X**=>o=*=@X==>o*X**=>o=*=@X=",
"&%o.. &&o.. $%%%&%o.. &&o.. $%%%&%o.. &&o.. $%%%",
">::< ,-:+;>:<1%>>::< ,-:+;>:<1%>>::< ,-:+;>:<1%>",
"**=:$=*@@**==:$=**=:$=*@@**==:$=**=:$=*@@**==:$=",
"X*=>%**X=**X=>$=X*=>%**X=**X=>$=X*=>%**X=**X=>$=",
"o .&%.. $oo%%&$oo .&%.. $oo%%&$oo .&%.. $oo%%&$o",
":>&>>;::><&>>:>::>&>>;::><&>>:>::>&>>;::><&>>:>:",
"=:$=@==*=:%*=@X*=:$=@==*=:%*=@X*=:$=@==*=:%*=@X*",
"=> =X@*==>&=@X===> =X@*==>&=@X===> =X@*==>&=@X==",
"$   .. $&%%%. $$$   .. $&%%%. $$$   .. $&%%%. $$",
">::>> >:,::<$>,>>::>> >:,::<$>,>>::>> >:,::<$>,>",
"*=X=,$*=*@X: ==**=X=,$*=*@X: ==**=X=,$*=*@X: ==*",
"*X@=> **=X=> =***X@=> **=X=> =***X@=> **=X=> =**",
"%%$$%o. O&&%o #%%%$$%o. O&&%o #%%%$$%o. O&&%o #%",
":>$>+;>:<$>::>>::>$>+;>:<$>::>>::>$>+;>:<$>::>>:",
"=:$+@===:$*=X*===:$+@===:$*=X*===:$+@===:$*=X*==",
"=>o*X**=>o=*=@X==>o*X**=>o=*=@X==>o*X**=>o=*=@X=",
"&%o.. &&o.. $%%%&%o.. &&o.. $%%%&%o.. &&o.. $%%%",
">::< ,-:+;>:<1%>>::< ,-:+;>:<1%>>::< ,-:+;>:<1%>",
"**=:$=*@@**==:$=**=:$=*@@**==:$=**=:$=*@@**==:$=",
"X*=>%**X=**X=>$=X*=>%**X=**X=>$=X*=>%**X=**X=>$=",
"o .&%.. $oo%%&$oo .&%.. $oo%%&$oo .&%.. $oo%%&$o",
":>&>>;::><&>>:>::>&>>;::><&>>:>::>&>>;::><&>>:>:",
"=:$=@==*=:%*=@X*=:$=@==*=:%*=@X*=:$=@==*=:%*=@X*",
"=> =X@*==>&=@X===> =X@*==>&=@X===> =X@*==>&=@X==",
"$   .. $&%%%. $$$   .. $&%%%. $$$   .. $&%%%. $$",
">::>> >:,::<$>,>>::>> >:,::<$>,>>::>> >:,::<$>,>",
"*=X=,$*=*@X: ==**=X=,$*=*@X: ==**=X=,$*=*@X: ==*",
"*X@=> **=X=> =***X@=> **=X=> =***X@=> **=X=> =**",
"%%$$%o. O&&%o #%%%$$%o. O&&%o #%%%$$%o. O&&%o #%",
":>$>+;>:<$>::>>::>$>+;>:<$>::>>::>$>+;>:<$>::>>:",
"=:$+@===:$*=X*===:$+@===:$*=X*===:$+@===:$*=X*==",
"=>o*X**=>o=*=@X==>o*X**=>o=*=@X==>o*X**=>o=*=@X=",
"&%o.. &&o.. $%%%&%o.. &&o.. $%%%&%o.. &&o.. $%%%",
">::< ,-:+;>:<1%>>::< ,-:+;>:<1%>>::< ,-:+;>:<1%>",
"**=:$=*@@**==:$=**=:$=*@@**==:$=**=:$=*@@**==:$=",
"X*=>%**X=**X=>$=X*=>%**X=**X=>$=X*=>%**X=**X=>$=",
"o .&%.. $oo%%&$oo .&%.. $oo%%&$oo .&%.. $oo%%&$o",
":>&>>;::><&>>:>::>&>>;::><&>>:>::>&>>;::><&>>:>:",
"=:$=@==*=:%*=@X*=:$=@==*=:%*=@X*=:$=@==*=:%*=@X*",
"=> =X@*==>&=@X===> =X@*==>&=@X===> =X@*==>&=@X==",
"$   .. $&%%%. $$$   .. $&%%%. $$$   .. $&%%%. $$"
};
